<svg xmlns="http://www.w3.org/2000/svg" viewBox="0 0 170 170" width="100%" height="100%">
  <path d="M 134 49 L 132 50 L 132 74 L 131 75 L 130 75 L 116 61 L 114 61 L 114 62 L 112 63 L 111 65 L 130 84 L 130 85 L 111 104 L 112 106 L 114 107 L 114 108 L 116 108 L 130 94 L 131 94 L 132 95 L 132 119 L 134 120 L 136 118 L 137 118 L 137 117 L 139 116 L 140 114 L 142 113 L 147 108 L 147 107 L 154 101 L 154 99 L 140 85 L 140 84 L 154 70 L 154 68 L 149 63 L 148 63 L 147 61 L 146 61 L 145 59 L 144 59 L 142 57 L 142 56 L 141 56 L 140 54 L 139 54 L 137 52 L 137 51 L 136 51 Z M 139 94 L 140 94 L 145 99 L 145 101 L 140 106 L 139 106 L 138 105 L 138 95 Z M 139 63 L 140 63 L 145 68 L 145 70 L 140 75 L 139 75 L 138 74 L 138 64 Z M 109 21 L 69 21 L 68 22 L 68 94 L 65 95 L 58 92 L 45 93 L 37 97 L 31 103 L 26 114 L 26 126 L 32 138 L 39 144 L 51 148 L 62 147 L 71 142 L 78 134 L 81 127 L 81 51 L 84 48 L 86 49 L 109 49 L 110 48 L 110 22 Z" fill="#FFFFFF" fill-rule="evenodd" />
</svg>
