<?xml version="1.0" standalone="no"?>
<!DOCTYPE svg PUBLIC "-//W3C//DTD SVG 20010904//EN"
 "http://www.w3.org/TR/2001/REC-SVG-20010904/DTD/svg10.dtd">
<svg version="1.0" xmlns="http://www.w3.org/2000/svg"
 width="170.000000pt" height="170.000000pt" viewBox="0 0 170.000000 170.000000"
 preserveAspectRatio="xMidYMid meet">

<g transform="translate(0.000000,170.000000) scale(0.100000,-0.100000)"
fill="#000000" stroke="none">
<path d="M687 1484 c-4 -4 -7 -171 -7 -371 0 -199 -3 -363 -6 -363 -3 0 -28 7
-55 16 -64 21 -140 14 -205 -19 -95 -48 -144 -125 -152 -233 -4 -61 -1 -80 20
-125 35 -76 70 -114 136 -146 139 -68 306 -11 376 129 l26 52 0 382 c0 271 3
385 11 390 6 4 70 7 143 8 l131 1 0 140 0 140 -206 3 c-113 1 -208 -1 -212 -4z"/>
<path d="M1333 1203 c-10 -3 -13 -39 -13 -129 0 -68 -3 -124 -8 -124 -4 0 -39
32 -77 70 -38 39 -74 70 -79 70 -5 0 -17 -10 -28 -22 l-19 -22 98 -98 98 -98
-98 -98 -98 -98 19 -22 c11 -12 23 -22 28 -22 5 0 41 31 79 70 38 39 73 70 77
70 5 0 8 -56 8 -124 0 -100 3 -125 15 -130 15 -5 215 178 215 198 0 6 -33 43
-72 83 l-72 73 72 73 c39 40 72 77 72 82 0 8 -153 161 -192 192 -7 6 -19 8
-25 6z m94 -165 c13 -12 23 -26 23 -32 0 -12 -40 -56 -52 -56 -4 0 -8 25 -8
55 0 30 3 55 7 55 4 0 17 -10 30 -22z m0 -310 c13 -12 23 -26 23 -32 0 -12
-40 -56 -52 -56 -4 0 -8 25 -8 55 0 30 3 55 7 55 4 0 17 -10 30 -22z"/>
</g>
</svg>
