<?xml version="1.0" encoding="UTF-8"?>
<svg version="1.1" xmlns="http://www.w3.org/2000/svg" width="170" height="170">
<path d="M0 0 C0.76166977 0.00222061 1.52333954 0.00444122 2.30809021 0.00672913 C3.16890701 0.00680466 4.02972382 0.00688019 4.91662598 0.00695801 C5.8520372 0.01211929 6.78744843 0.01728058 7.75120544 0.02259827 C8.70422043 0.02401321 9.65723541 0.02542816 10.63912964 0.02688599 C13.69605085 0.032503 16.75289996 0.04505836 19.80979919 0.05775452 C21.87685543 0.06276733 23.94391281 0.06733061 26.01097107 0.07142639 C31.08977507 0.08247795 36.16852489 0.09975397 41.24729919 0.12025452 C42.995297 3.90159334 43.49469156 6.85338803 43.47776794 11.00697327 C43.47583435 12.10976624 43.47390076 13.2125592 43.47190857 14.34877014 C43.45966248 15.49023499 43.44741638 16.63169983 43.43479919 17.80775452 C43.4338324 19.53735413 43.4338324 19.53735413 43.43284607 21.30189514 C43.38778063 29.83929164 43.38778063 29.83929164 42.24729919 32.12025452 C33.00729919 32.12025452 23.76729919 32.12025452 14.24729919 32.12025452 C14.26300964 34.34509583 14.27872009 36.56993713 14.29490662 38.86219788 C14.34476231 46.23818863 14.3778118 53.61418709 14.40273571 60.99030209 C14.41834783 65.45957336 14.43950409 69.92867102 14.47361755 74.39784241 C14.50637071 78.71614841 14.52418566 83.03428811 14.53193092 87.35270882 C14.53744593 88.99482908 14.54821501 90.63694092 14.56448936 92.27898979 C14.68710422 105.17098232 13.93011955 114.20873331 4.57933044 123.95228577 C-0.90485713 129.0506511 -7.45848732 132.2012884 -15.04957581 132.08509827 C-25.51533644 131.11929821 -33.89361698 126.90701691 -40.69020081 118.80775452 C-46.16874666 111.26207215 -46.6128719 102.781561 -45.19020081 93.74525452 C-43.2241554 85.67484436 -37.26470597 80.05949479 -30.74488831 75.31166077 C-25.75564396 72.32789699 -21.43886158 71.80702452 -15.69020081 71.87025452 C-14.62962463 71.85865295 -14.62962463 71.85865295 -13.54762268 71.84681702 C-9.69150404 71.86130009 -7.09988239 72.2582952 -3.75270081 74.12025452 C-3.74239334 73.20792557 -3.73208588 72.29559662 -3.72146606 71.35562134 C-3.6236682 62.77635448 -3.52117953 54.19715945 -3.41336155 45.61801243 C-3.35809249 41.20692052 -3.30466627 36.79582202 -3.25538635 32.38465881 C-3.20780136 28.13118464 -3.15546095 23.87779362 -3.09976006 19.62441826 C-3.07930983 17.99806209 -3.06060125 16.3716831 -3.04362679 14.74528694 C-3.01964153 12.47509089 -2.98957946 10.20505339 -2.95802307 7.93495178 C-2.94247879 6.64033524 -2.92693451 5.34571869 -2.91091919 4.01187134 C-2.70154667 0.18535576 -2.70154667 0.18535576 0 0 Z " fill="#000000" transform="translate(69.75270080566406,18.879745483398438)"/>
<path d="M0 0 C1.4540625 0.0309375 1.4540625 0.0309375 2.9375 0.0625 C2.9375 0.7225 2.9375 1.3825 2.9375 2.0625 C3.5975 2.0625 4.2575 2.0625 4.9375 2.0625 C4.9375 2.7225 4.9375 3.3825 4.9375 4.0625 C5.9275 4.3925 6.9175 4.7225 7.9375 5.0625 C7.9375 5.7225 7.9375 6.3825 7.9375 7.0625 C8.5975 7.0625 9.2575 7.0625 9.9375 7.0625 C9.9375 7.7225 9.9375 8.3825 9.9375 9.0625 C10.9275 9.3925 11.9175 9.7225 12.9375 10.0625 C12.9375 10.7225 12.9375 11.3825 12.9375 12.0625 C13.5975 12.0625 14.2575 12.0625 14.9375 12.0625 C14.9375 12.7225 14.9375 13.3825 14.9375 14.0625 C15.576875 14.330625 16.21625 14.59875 16.875 14.875 C18.9375 16.0625 18.9375 16.0625 19.9375 19.0625 C20.9275 19.0625 21.9175 19.0625 22.9375 19.0625 C23.16796875 21.34375 23.16796875 21.34375 22.9375 24.0625 C21.36328125 25.90625 21.36328125 25.90625 19.25 27.5625 C18.52425781 28.15160156 17.79851562 28.74070312 17.05078125 29.34765625 C16.35339844 29.91355469 15.65601563 30.47945312 14.9375 31.0625 C13.22182193 32.68852269 11.58340101 34.36516458 9.9375 36.0625 C11.46511987 39.69059719 13.64357139 42.00596298 16.4375 44.75 C17.2315625 45.53761719 18.025625 46.32523438 18.84375 47.13671875 C20.78773032 49.10275802 20.78773032 49.10275802 22.9375 50.0625 C22.9375 51.7125 22.9375 53.3625 22.9375 55.0625 C21.9475 55.0625 20.9575 55.0625 19.9375 55.0625 C19.669375 55.701875 19.40125 56.34125 19.125 57 C17.9375 59.0625 17.9375 59.0625 14.9375 60.0625 C14.9375 60.7225 14.9375 61.3825 14.9375 62.0625 C14.2775 62.0625 13.6175 62.0625 12.9375 62.0625 C12.6075 63.0525 12.2775 64.0425 11.9375 65.0625 C11.2775 65.0625 10.6175 65.0625 9.9375 65.0625 C9.9375 65.7225 9.9375 66.3825 9.9375 67.0625 C9.2775 67.0625 8.6175 67.0625 7.9375 67.0625 C7.6075 68.0525 7.2775 69.0425 6.9375 70.0625 C6.2775 70.0625 5.6175 70.0625 4.9375 70.0625 C4.9375 70.7225 4.9375 71.3825 4.9375 72.0625 C4.2775 72.0625 3.6175 72.0625 2.9375 72.0625 C2.9375 72.7225 2.9375 73.3825 2.9375 74.0625 C0.93795254 74.10504356 -1.06291636 74.10330783 -3.0625 74.0625 C-4.71329442 72.41170558 -4.28799447 70.42513821 -4.37890625 68.15234375 C-4.42080078 67.16298828 -4.46269531 66.17363281 -4.50585938 65.15429688 C-4.54517578 64.11337891 -4.58449219 63.07246094 -4.625 62 C-4.66818359 60.95521484 -4.71136719 59.91042969 -4.75585938 58.83398438 C-4.86231225 56.24363116 -4.9643276 53.65317814 -5.0625 51.0625 C-6.71136059 52.68442821 -8.3565024 54.31013772 -10 55.9375 C-11.37478516 57.29488281 -11.37478516 57.29488281 -12.77734375 58.6796875 C-15.07437627 60.83932255 -15.07437627 60.83932255 -16.0625 63.0625 C-17.7125 62.7325 -19.3625 62.4025 -21.0625 62.0625 C-21.0625 61.4025 -21.0625 60.7425 -21.0625 60.0625 C-22.0525 59.7325 -23.0425 59.4025 -24.0625 59.0625 C-23.55243402 54.8900969 -22.46745389 52.98225849 -19.46484375 50.07421875 C-18.74619141 49.36845703 -18.02753906 48.66269531 -17.28710938 47.93554688 C-16.53236328 47.21431641 -15.77761719 46.49308594 -15 45.75 C-14.24138672 45.00943359 -13.48277344 44.26886719 -12.70117188 43.50585938 C-10.83030841 41.68206166 -8.95075508 39.86825696 -7.0625 38.0625 C-8.44950675 34.89672326 -10.04092595 32.90224017 -12.57421875 30.56640625 C-13.24904297 29.92509766 -13.92386719 29.28378906 -14.61914062 28.62304688 C-16.04402243 27.2869753 -17.47640292 25.95885773 -18.91601562 24.63867188 C-19.58697266 23.99607422 -20.25792969 23.35347656 -20.94921875 22.69140625 C-21.57014404 22.11463135 -22.19106934 21.53785645 -22.83081055 20.94360352 C-24.0625 19.0625 -24.0625 19.0625 -23.75708008 16.33569336 C-23.41326294 15.21046265 -23.41326294 15.21046265 -23.0625 14.0625 C-22.4025 14.0625 -21.7425 14.0625 -21.0625 14.0625 C-21.0625 13.4025 -21.0625 12.7425 -21.0625 12.0625 C-19.4125 11.7325 -17.7625 11.4025 -16.0625 11.0625 C-15.37414062 11.85914063 -15.37414062 11.85914063 -14.671875 12.671875 C-14.05828125 13.37828125 -13.4446875 14.0846875 -12.8125 14.8125 C-12.20921875 15.50859375 -11.6059375 16.2046875 -10.984375 16.921875 C-9.07801161 19.04522284 -7.09784509 21.06317871 -5.0625 23.0625 C-5.03744385 22.4012915 -5.0123877 21.74008301 -4.98657227 21.05883789 C-4.87096898 18.08067695 -4.74808246 15.1028608 -4.625 12.125 C-4.58568359 11.08408203 -4.54636719 10.04316406 -4.50585938 8.97070312 C-4.46396484 7.98134766 -4.42207031 6.99199219 -4.37890625 5.97265625 C-4.34224854 5.05621338 -4.30559082 4.13977051 -4.26782227 3.19555664 C-3.94038156 -0.20616682 -3.5122888 0.07167936 0 0 Z M5.9375 18.0625 C5.9375 20.3725 5.9375 22.6825 5.9375 25.0625 C7.2575 23.7425 8.5775 22.4225 9.9375 21.0625 C9.2775 21.0625 8.6175 21.0625 7.9375 21.0625 C7.6075 20.0725 7.2775 19.0825 6.9375 18.0625 C6.6075 18.0625 6.2775 18.0625 5.9375 18.0625 Z M5.9375 49.0625 C5.9375 51.3725 5.9375 53.6825 5.9375 56.0625 C6.5975 55.7325 7.2575 55.4025 7.9375 55.0625 C7.9375 54.4025 7.9375 53.7425 7.9375 53.0625 C8.5975 52.7325 9.2575 52.4025 9.9375 52.0625 C8.6175 51.0725 7.2975 50.0825 5.9375 49.0625 Z " fill="#000000" transform="translate(134.0625,47.9375)"/>
</svg>
